<?xml version="1.0" standalone="no"?>
<!DOCTYPE svg PUBLIC "-//W3C//DTD SVG 1.1//EN" "http://www.w3.org/Graphics/SVG/1.1/DTD/svg11.dtd" >
<!--
2013-9-30: Created.
-->
<svg>
<metadata>
Created by iconfont
</metadata>
<defs>

<font id="txiconfont" horiz-adv-x="1024" >
  <font-face
    font-family="txiconfont"
    font-weight="500"
    font-stretch="normal"
    units-per-em="1024"
    ascent="896"
    descent="-128"
  />
    <missing-glyph />
    
    <glyph glyph-name="return" unicode="&#59150;" d="M512.45568 717.792c230.89664 0 418.259968-187.3408 418.259968-418.256896 0-230.915072-187.359232-418.24768-418.259968-418.24768C281.54368-118.712576 94.208 68.620032 94.208 299.535104 94.208 530.4512 281.54368 717.792 512.45568 717.792L512.45568 717.792zM512.45568-25.764096c179.632128 0 325.312512 145.675264 325.312512 325.2992 0 179.636224-145.680384 325.308416-325.312512 325.308416-179.623936 0-325.2992-145.672192-325.2992-325.308416C187.15648 119.911168 332.831744-25.764096 512.45568-25.764096L512.45568-25.764096zM512.45568 239.30752l0-117.715968-267.211776 181.92384 267.211776 181.919744 0-117.723136c235.144192 0 267.224064-181.904384 267.224064-288.912384C756.475904 147.191552 712.79616 239.30752 512.45568 239.30752L512.45568 239.30752zM512.45568 239.30752"  horiz-adv-x="1024" />

    
    <glyph glyph-name="shop-car" unicode="&#58881;" d="M403.184 130.14933333c-44.17706667 0-79.9776-35.91786667-79.9776-80.01813333 0-44.17493333 35.80053333-80.01706667 79.9776-80.01706667 44.21546667 0 80.0544 35.84106667 80.0544 80.01706667 0 44.10026667-35.83893333 80.01813333-80.0544 80.01813333zM789.4944 130.14933333c-44.21653333 0-80.0192-35.91786667-80.0192-80.01813333 0-44.17493333 35.8016-80.01706667 80.0192-80.01706667 44.176 0 79.9776 35.84106667 79.9776 80.01706667 0.00106667 44.10026667-35.80053333 80.01813333-79.9776 80.01813333zM596.98453333 643.16586667c-37.51573333-2.02453333-59.68106667-21.65973333-66.53866666-59.29173334h133.65973333c-6.5824 38.3328-29.02293333 57.968-67.12106667 59.29173334zM969.99253333 762.76266667h-721.87626666l-16.07466667 63.03253333c-5.02506667 18.3104-21.58186667 31.00906667-40.592 31.00906667h-99.37813333c-23.2576 0-42.112-18.77653333-42.112-41.99573334 0-23.37386667 18.85546667-42.15146667 42.112-42.15146666h67.31626666l144.56746667-566.97173334c4.98453333-18.2304 21.5808-30.93333333 40.592-30.93333333h507.8752c23.25866667 0 42.07253333 18.7776 42.07253333 42.07466667 0 23.21813333-18.81493333 42.07253333-42.07253333 42.07253333l-475.81333333 0-17.92533334 74.96h485.22133334c44.2048 0 66.01493333 38.79253333 71.8592 61.15306667l85.70453333 327.0784c5.84426667 22.36266667-8.33706667 40.672-31.47733333 40.672zM711.36 532.52906667h-179.2c7.20853333-35.91786667 33.73653333-54.61653333 79.62773333-56.01813334 16.7136 0 37.63306667 6.54506667 62.8768 19.63306667 14.95893333 7.79093333 25.43893333 11.76426667 31.51573334 11.76426667 20.33493333-2.4928 38.93866667-18.85546667 29.70453333-44.24213334-19.62453333-34.95466667-71.7792-55.9424-132.04373333-53.69386666-98.44266667 5.4528-156.1408 59.77493333-157.0336 147.80053333 2.53013333 93.70453333 68.01813333 152.6432 150.17813333 149.82613333 86.47466667 1.17973333 148.68906667-56.12266667 150.72213333-140.94293333 0.42986667-23.14026667-11.7248-34.43733333-36.34666666-34.12693333z"  horiz-adv-x="1024" />

    
    <glyph glyph-name="parts" unicode="&#59233;" d="M353.374236 385.596358c0 11.032264 1.11745 21.785166 3.221368 32.197306-37.050848 31.079856-77.561493 51.194986-107.269096 63.002916-7.139607-24.249287-11.131525-49.847292-11.131525-76.413344 0-7.263427 0.931209-14.285355 1.713015-21.343097-0.781806-7.059789-1.713015-14.069437-1.713015-21.345144 0-26.559912 3.992941-52.156894 11.131525-76.407204 29.979802 11.914354 70.993914 32.228005 108.320031 63.803141-2.708692 11.753695-4.272303 23.940249-4.272303 36.512588L353.374236 385.596358zM459.749986 537.8459c10.013051 42.081421 7.823176 84.018555 2.284019 115.470895-67.157539-11.647271-125.72033-47.965431-166.112272-99.4275 32.668027-29.806863 71.13513-47.488571 100.993159-57.894571C414.130995 514.5073560000001 435.568237 528.9421130000001 459.749986 537.8459L459.749986 537.8459zM631.692033 499.14139c27.864628 10.535961 61.320601 27.094078 90.512457 53.17099-39.268352 50.791803-96.037287 87.278809-161.437809 100.117209-5.240351-43.701315-1.638313-83.777055 2.800789-111.652939 26.155706-8.05956 49.450249-22.566972 68.118424-41.635259L631.692033 499.14139zM400.415622 271.360594c-30.260188-10.200316-70.579475-28.223808-104.494912-59.178821 40.385802-51.455929 98.955756-87.769996 166.112272-99.429547 5.786797 32.855292 8.139378 77.122495-3.53143 121.05917C436.480003 242.12575900000002 416.674934 254.945739 400.415622 271.360594L400.415622 271.360594zM678.095899 385.596358c0-15.19712-2.24718-29.855982-6.152117-43.812855 33.493835-26.281573 68.819388-44.427862 95.951329-55.41817 6.934946 23.934109 10.852162 49.158606 10.852162 75.327616 0 7.257288-0.826831 14.285355-1.571798 21.345144 0.744967 7.058766 1.571798 14.086833 1.571798 21.343097 0 26.175149-3.917216 51.399647-10.852162 75.334779-26.833135-10.877745-61.687968-28.764114-94.859461-54.559617C676.220179 412.465309 678.095899 399.267728 678.095899 385.596358L678.095899 385.596358zM592.270185 388.482081c0 44.925189-36.414351 81.343633-81.337493 81.343633-44.925189 0-81.343633-36.418444-81.343633-81.343633 0-44.923142 36.418444-81.34261 81.343633-81.34261C555.850717 307.140495 592.270185 343.56507899999997 592.270185 388.482081L592.270185 388.482081zM512.001023 894.671749c-282.037515 0-510.670725-228.633211-510.670725-510.670725 0-282.031375 228.633211-510.670725 510.670725-510.670725 282.031375 0 510.669702 228.639351 510.669702 510.670725S794.032398 894.671749 512.001023 894.671749L512.001023 894.671749zM512.001023 52.064029000000005c-183.317119 0-331.935971 148.611689-331.935971 331.935971S328.682881 715.935971 512.001023 715.935971c183.322236 0 331.933925-148.611689 331.933925-331.935971S695.323259 52.064029000000005 512.001023 52.064029000000005L512.001023 52.064029000000005zM564.449559 230.70156799999995c-4.818749-27.931143-9.262968-70.479191-3.689019-117.048833 65.406662 12.834306 122.171504 49.327452 161.439856 100.119255-30.601972 27.329439-65.804728 44.135196-94.387717 54.547337C610.03785 251.33142099999998 588.495208 238.250498 564.449559 230.70156799999995L564.449559 230.70156799999995zM564.449559 230.70156799999995"  horiz-adv-x="1024" />

    
    <glyph glyph-name="i-money" unicode="&#58889;" d="M383.613 562.141h277.493c18.724 0 36.743 7.924 48.757 22.284 28.624 34.025 55.8 75.816 61.884 113.243 12.268 74.934-19.839 112.989-112.989 112.989-93.13 0-61.63-61.122-97.846-66.17-26.98-3.737-26.022 31.872-68.42 66.072-30.463 24.457-64.584-44.648-104.791-45.078-46.918-0.626-112.911 12.346-112.911-67.813 0-32.38 28.389-76.168 59.38-112.461 12.443-14.537 30.366-23.068 49.441-23.068zM729.8 490.748c-14.811 16.807-36.313 26.218-58.675 26.218h-296.139c-21.404 0-42.046-8.628-56.837-24.125-93.053-97.493-178.884-236.68-178.884-338.184 0-89.472 89.922-202.461 200.818-202.461h343.839c110.896 0 200.818 112.030 200.818 202.461 0 103.343-69.025 238.597-154.937 336.091v0zM639.35 367.584l-59.537-108.020c-5.225-9.489 1.643-21.17 12.443-21.17h16.884c7.846 0 14.282-6.339 14.282-14.263 0-7.846-6.359-14.282-14.282-14.282h-42.475c-8.275 0-14.889-6.613-14.968-14.889v-7.043c0-7.825 6.359-14.282 14.263-14.282h43.18c7.846 0 14.282-6.339 14.282-14.263s-6.359-14.282-14.282-14.282h-43.18c-7.826 0-14.263-6.359-14.263-14.282v-36.293c0-7.825-6.359-14.263-14.282-14.263h-25.846c-7.846 0-14.282 6.339-14.282 14.263v36.293c0 7.846-6.359 14.282-14.282 14.282h-42.73c-7.846 0-14.282 6.359-14.282 14.282 0 7.924 6.359 14.263 14.282 14.263h42.652c7.924 0 14.282 6.359 14.361 14.282l0.097 6.966c0.078 8.276-6.632 15.066-14.987 15.066h-42.125c-7.846 0-14.282 6.339-14.282 14.263 0 7.846 6.359 14.282 14.282 14.282h16.454c10.878 0 17.668 11.661 12.443 21.15l-59.537 108.020c-5.225 9.489 1.643 21.15 12.443 21.15h28.37c5.4 0 10.37-3.032 12.718-7.826l48.482-96.711c5.224-10.448 20.191-10.448 25.513 0l48.482 96.711c2.426 4.793 7.318 7.826 12.697 7.826h28.389c10.957-0.157 17.843-11.739 12.62-21.228v0z"  horiz-adv-x="1024" />

    
    <glyph glyph-name="return-left-2" unicode="&#59192;" d="M512 869.45185223C243.88494222 869.45185223 26.54814777 652.11505778 26.54814777 384s217.33679445-485.45185223 485.45185223-485.45185223 485.45185223 217.33679445 485.45185223 485.45185223S780.11505778 869.45185223 512 869.45185223zM512-4.361481099999992c-214.13281223 0-388.3614811 174.22867001-388.3614811 388.3614811s174.22867001 388.3614811 388.3614811 388.3614811 388.3614811-174.22867001 388.3614811-388.3614811S726.13281223-4.361481099999992 512-4.361481099999992zM642.05255111 591.09376L576.12819001 662.35809223 295.87683555 403.12680334 575.20583111 130.78831445000003 642.97491001 200.30501888000003 436.85205333 401.28208555Z"  horiz-adv-x="1024" />

    
    <glyph glyph-name="shutdown-2" unicode="&#58942;" d="M511.68564053 861.8441536c-263.75649067 0-477.57345493-213.81587307-477.57345493-477.57345493s213.81587307-477.57345493 477.57345493-477.57345494c263.7543072 0 477.57345493 213.81587307 477.57345494 477.57345494S775.43994773 861.8441536 511.68564053 861.8441536zM484.37237013 613.0066496c0 20.11246933 16.30522453 36.4155104 36.41769387 36.4155104s36.4155104-16.30304107 36.4155104-36.4155104l0-202.5611424c0-20.11246933-16.30304107-36.4155104-36.4155104-36.4155104s-36.41769387 16.30304107-36.41769387 36.4155104L484.37237013 613.0066496zM511.68564053 119.12032853000005c-125.6991136 0-227.59858027 101.89946667-227.59858026 227.5963968 0 96.7736576 60.50441173 179.2275776 145.66313493 212.14911254l0-81.02292907c-43.6861696-27.3569312-72.83211307-75.7803264-72.83211307-131.12618347 0-85.47417387 69.29338347-154.76319253 154.7675584-154.76319253s154.76537493 69.2890176 154.76537494 154.76319253c0 47.2565536-21.24110827 89.49426667-54.6254496 117.8816l0 86.26443947c75.4179392-37.07261013 127.4553792-114.43346667 127.4553792-204.14713067C739.28203733 221.01979519999998 637.38257067 119.12032853000005 511.68564053 119.12032853000005z"  horiz-adv-x="1024" />

    
    <glyph glyph-name="circle" unicode="&#58886;" d="M512 864C247.30688 864 32 648.69312 32 384c0-264.69312 215.30688-480 480-480 264.6912 0 480 215.30688 480 480C992 648.69312 776.6912 864 512 864L512 864z"  horiz-adv-x="1024" />

    
    <glyph glyph-name="fujin" unicode="&#58892;" d="M502.295987 111.920278c2.943029-3.496637 7.693216-5.978155 16.387225-5.978155l0.407276 0c10.656711 0 14.32117 3.916193 17.651009 8.091282 40.948621 51.219545 178.542372 226.799446 230.147704 322.44276 21.095457 39.090297 29.696346 73.78447 29.696346 119.827109 0 152.040788-124.661208 275.67562-277.902334 275.67562S240.781902 708.908928 240.781902 557.797301c0-39.904849 9.311063-81.355913 26.920116-119.371738C314.255287 337.938941 482.829634 135.135002 502.295987 111.920278zM518.684236 789.012314c129.661082 0 235.147578-104.442724 235.147578-232.810347 0-38.839587-6.888897-66.730821-24.571628-99.464339-43.339064-80.352049-156.215878-228.238214-202.727191-288.089347l-8.256034-10.626012-8.486278 10.437723c-49.132001 60.436464-167.30033 209.407334-203.301266 287.107997-15.020088 32.43062-22.952758 67.638493-22.952758 101.812827C283.535635 687.272141 386.819976 789.012314 518.684236 789.012314zM760.334925 269.281235c-2.547009 1.01205-5.208629 1.523703-7.912204 1.523703-8.819876 0-16.617469-5.27105-19.87363-13.464663-2.119267-5.302773-2.035356-11.105942 0.208754-16.356526 2.254344-5.240351 6.4192-9.289574 11.721973-11.408841 70.478168-28.098965 110.893646-66.584488 110.893646-105.590873 0-69.642127-135.287219-144.20124-336.689229-144.20124S181.995007 54.341908 181.995007 123.984035c0 37.775348 38.391379 75.42483 105.319697 103.304807 5.27105 2.202155 9.373485 6.314823 11.544941 11.597129 2.181689 5.281283 2.171456 11.085476-0.020466 16.356526-3.340071 7.995091-11.095709 13.173021-19.769252 13.173021-2.807952 0-5.563716-0.553609-8.18338-1.64957-84.892459-35.364439-131.644249-86.072331-131.644249-142.781914 0-106.582457 163.125241-186.955996 379.442962-186.955996S898.127198 17.401578 898.127198 123.984035C898.127198 181.393559 847.899236 234.355795 760.334925 269.281235zM518.684236 471.455841c47.148833 0 85.508489 38.359656 85.508489 85.508489s-38.359656 85.508489-85.508489 85.508489-85.508489-38.359656-85.508489-85.508489S471.535403 471.455841 518.684236 471.455841z"  horiz-adv-x="1024" />

    
    <glyph glyph-name="search" unicode="&#58888;" d="M828.25629781 114.11098500000003c62.45749406 72.8319 100.19638688 167.48324625 100.19638688 270.951975 0 230.00022-186.45246563 416.45268469-416.45268469 416.45268469S95.54731531 615.06413812 95.54731531 385.06295906s186.45246563-416.45268469 416.45268469-416.45268469c103.46872781 0 198.120075 37.73889281 270.951975 100.19638688l90.81394781-90.81394781c12.50991844-12.50991844 32.79344625-12.50991844 45.30432375 0s12.50991844 32.79344625 0 45.30432375L828.25629781 114.11098500000003zM512.29356125 37.091523749999965c-192.01669312 0-347.676915 155.66022281-347.676915 347.676915s155.66022281 347.676915 347.676915 347.676915 347.676915-155.66022281 347.676915-347.676915S704.31025344 37.091523749999965 512.29356125 37.091523749999965z"  horiz-adv-x="1024" />

    
    <glyph glyph-name="home-2" unicode="&#58894;" d="M511.86574187 859.76588693c-262.7588352 0-475.7669792-213.00705173-475.7669792-475.76588693s213.0092352-475.76588693 475.7669792-475.76588693S987.63162987 121.24334826999996 987.63162987 384.0010912C987.63162987 646.7588352 774.62348587 859.76588693 511.86574187 859.76588693L511.86574187 859.76588693zM754.07222293 407.8574976l0-290.177984L595.77248427 117.67951359999995 595.77248427 355.07781973 437.4727456 355.07781973l0-237.39830613L279.173008 117.67951359999995 279.173008 407.8574976l-52.76767147 0L516.62261547 698.0049184l105.53425066-105.51678613 0 79.1378624 105.53425067 0 0-184.65355734 79.1498688-79.116032L754.07222293 407.85640533 754.07222293 407.8574976z"  horiz-adv-x="1024" />

    
    <glyph glyph-name="goods-data" unicode="&#58975;" d="M932.103522 785.839041L450.161095 887.977279c-21.736047 0-39.362496-17.633612-39.362496-39.394219l0-48.880267L39.928896 799.702794l0-842.662979 370.869702 0 0-40.854477c0-21.760606 17.626449-39.402405 39.362496-39.402405l481.942427 115.272373c21.73707 0 39.362496 13.287631 39.362496 29.67281L971.466018 756.165208C971.466018 772.55141 953.840592 785.839041 932.103522 785.839041zM410.798599-2.835326000000009l-9.502421 0 0 144.460136-88.330768 0 0-144.460136-32.122605 0L280.842805 173.72183299999995 104.172059 173.72183299999995l0-176.557158L80.084455-2.835326000000009 80.084455 759.578957l330.714144 0L410.798599-2.835326000000009zM264.782014 350.278991L104.172059 350.278991l0-152.47774 160.609954 0L264.782014 350.278991zM216.599641 518.8103590000001L104.172059 518.8103590000001l0-144.45195 112.427582 0L216.599641 518.8103590000001z"  horiz-adv-x="1024" />

    
    <glyph glyph-name="return-top" unicode="&#58890;" d="M679.936 413.824l0.32 0.32-157.44 157.44c-6.912 6.912-18.112 6.912-25.024 0L342.4 416.128 342.592 416c-10.88-11.776-6.208-34.624 10.816-51.648s39.872-21.632 51.648-10.816L405.12 353.408l62.336 62.336 0-195.648c0-24 19.392-43.52 43.392-43.52s43.392 19.52 43.392 43.52L554.24 414.72l61.696-61.696c0.064-0.064 0.064-0.064 0.128-0.128l0.128-0.064 1.408-1.408 0.192 0.192c12.032-9.728 33.984-4.928 50.56 11.584C684.8 379.84000000000003 689.6 401.792 679.936 413.824zM512 832C264.576 832 64 631.424 64 384s200.576-448 448-448c247.36 0 448 200.64 448 448S759.36 832 512 832zM512 31.744000000000028c-194.56 0-352.192 157.76-352.192 352.256C159.808 578.496 317.44 736.192 512 736.192c194.496 0 352.192-157.696 352.192-352.192C864.192 189.50400000000002 706.496 31.744000000000028 512 31.744000000000028z"  horiz-adv-x="1024" />

    
    <glyph glyph-name="custom-data" unicode="&#58944;" d="M213.086705 647.398844c35.514451 0 65.109827 35.514451 65.109827 82.867052L278.196532 813.1329479999999C284.115607 860.485549 248.601156 896 213.086705 896S147.976879 860.485549 147.976879 813.1329479999999l0-94.705202C147.976879 682.9132950000001 177.572254 647.398844 213.086705 647.398844L213.086705 647.398844 213.086705 647.398844 213.086705 647.398844 213.086705 647.398844 213.086705 647.398844zM994.404624 801.294798l-35.514451 0-5.919075-130.219653c0 0 0-59.190751-59.190751-59.190751-5.919075 0-5.919075 0-11.83815 0-17.757225 0-53.271676 0-82.867052 0-11.83815 0-17.757225 0-17.757225 0-59.190751 0-53.271676 59.190751-53.271676 59.190751L728.046243 801.294798l0 0L325.549133 801.294798l0 0 0-130.219653c0 0 5.919075-53.271676-53.271676-59.190751 0 0-5.919075 0-17.757225 0-35.514451 0-65.109827 0-82.867052 0-5.919075 0-5.919075 0-11.83815 0-59.190751 0-59.190751 59.190751-59.190751 59.190751L100.624277 801.294798 71.028902 801.294798c0 0-71.028902 5.919075-71.028902-65.109827 0-5.919075 0-5.919075 0-5.919075s0-751.722543 0-781.317919c0-71.028902 71.028902-71.028902 71.028902-71.028902l923.375723 0c0 0 71.028902 0 71.028902 71.028902 0 29.595376 0 781.317919 0 781.317919s0 0 0 5.919075C1065.433526 801.294798 994.404624 801.294798 994.404624 801.294798L994.404624 801.294798 994.404624 801.294798 994.404624 801.294798zM118.381503 25.89595399999996l0 82.867052c0 41.433526 71.028902 82.867052 136.138728 106.543353 5.919075 0 23.676301 17.757225 17.757225 47.352601-29.595376 29.595376-59.190751 82.867052-59.190751 130.219653 0 76.947977 53.271676 118.381503 112.462428 118.381503 59.190751 0 112.462428-41.433526 112.462428-118.381503 0-53.271676-23.676301-100.624277-59.190751-130.219653-11.83815-35.514451 5.919075-47.352601 11.83815-47.352601 65.109827-17.757225 136.138728-59.190751 136.138728-106.543353l0-82.867052C325.549133 25.89595399999996 295.953757 25.89595399999996 118.381503 25.89595399999996L118.381503 25.89595399999996 118.381503 25.89595399999996 118.381503 25.89595399999996zM899.699422 85.08670500000005l-236.763006 0c-23.676301 0-53.271676 17.757225-53.271676 53.271676 0 23.676301 17.757225 53.271676 53.271676 53.271676l236.763006 0c23.676301 0 53.271676-17.757225 53.271676-53.271676S929.294798 85.08670500000005 899.699422 85.08670500000005L899.699422 85.08670500000005 899.699422 85.08670500000005 899.699422 85.08670500000005 899.699422 85.08670500000005 899.699422 85.08670500000005zM899.699422 280.41618500000004l-236.763006 0c-23.676301 0-53.271676 17.757225-53.271676 53.271676 0 23.676301 17.757225 53.271676 53.271676 53.271676l236.763006 0c23.676301 0 53.271676-17.757225 53.271676-53.271676C952.971098 304.092486 929.294798 280.41618500000004 899.699422 280.41618500000004L899.699422 280.41618500000004 899.699422 280.41618500000004 899.699422 280.41618500000004 899.699422 280.41618500000004 899.699422 280.41618500000004zM852.346821 647.398844c35.514451 0 65.109827 35.514451 65.109827 82.867052L917.456647 813.1329479999999C917.456647 860.485549 887.861272 896 852.346821 896c-35.514451 0-59.190751-35.514451-59.190751-82.867052l0-94.705202C781.317919 682.9132950000001 816.83237 647.398844 852.346821 647.398844L852.346821 647.398844 852.346821 647.398844 852.346821 647.398844 852.346821 647.398844 852.346821 647.398844z"  horiz-adv-x="1066" />

    
    <glyph glyph-name="repair" unicode="&#58996;" d="M918.24 91.20000000000005l-213.472 213.472c-12.448 12.416-32.576 12.512-45.12 0.16l-79.136-78.144c-6.048-6.016-9.472-14.144-9.504-22.688s3.328-16.672 9.376-22.72l213.952-213.952c6.24-6.24 14.432-9.376 22.624-9.376s16.384 3.136 22.624 9.376l78.656 78.624c6.016 6.016 9.376 14.112 9.376 22.624S924.256 85.18399999999997 918.24 91.20000000000005zM573.92 807.296c-0.48 0.224-0.928 0.416-1.408 0.608-114.336 47.136-244.544 21.184-332-66.272l-166.496-165.888c-6.016-6.016-9.408-14.144-9.408-22.656s3.36-16.64 9.376-22.656l98.304-98.304c12.512-12.512 32.736-12.512 45.248 0l56.032 56 68.224-68.192c6.016-6.016 14.144-9.376 22.624-9.376 0.032 0 0.096 0 0.16 0 8.544 0.032 16.704 3.488 22.656 9.568l77.92 79.36c12.32 12.544 12.224 32.64-0.192 45.056l-67.648 67.68c-2.048 5.344-1.92 11.616 1.056 18.4l4.64 8.832c8.704 15.008 33.472 44.704 40.672 53.216 31.296 31.264 72.608 50.112 116.64 53.28 12.928-0.896 24.896 7.008 30.208 19.392C597.376 781.44 589.92 800.16 573.92 807.296zM942.304 688.8c-4.448 9.44-13.184 16.096-23.424 17.92-10.464 1.824-20.768-1.536-28.128-8.896l-89.376-89.344-33.024 33.056 88.8 88.8c7.424 7.424 10.752 18.048 8.832 28.384-1.888 10.336-8.736 19.104-18.304 23.392-24.832 11.2-52.384 17.12-79.648 17.12-51.232 0-99.328-19.904-135.456-56.064-50.688-50.656-68.32-126.24-47.04-193.952l-238.688-238.688c-67.936 21.376-143.872 3.072-193.952-47.04-56.032-56.032-71.68-142.464-38.944-215.136 4.32-9.6 13.088-16.448 23.424-18.304 10.272-2.016 20.96 1.408 28.384 8.832l87.52 87.52 33.056-33.056-88.064-88.064c-7.36-7.36-10.688-17.888-8.896-28.128 1.792-10.272 8.48-19.04 17.92-23.456 25.664-12.064 54.24-18.432 82.624-18.432 51.168 0 99.2 19.872 135.296 55.968 51.52 51.488 68.768 128.064 46.048 196.544l237.12 237.12c19.68-6.528 40.512-9.952 61.216-9.952 51.168 0 99.2 19.904 135.296 56C961.792 527.904 976.864 615.456 942.304 688.8z"  horiz-adv-x="1024" />

    
    <glyph glyph-name="wodeguanjia" unicode="&#58907;" d="M508.520835-52.890976h-0.409313c-24.968122 0-54.745678 1.841911-88.411712 5.525732-32.949735 3.581493-65.797142 7.879285-97.518937 12.893374-31.721795 5.01409-59.964425 10.232837-83.806935 15.553913-34.382332 7.572299-46.354752 12.995703-53.722394 18.726091-12.279404 8.902568-19.647047 26.605376-23.944839 58.327171-3.376836 25.377436-2.148896 56.178275 3.78615 94.244429 4.40012 27.321675 16.167882 48.605976 34.791646 63.44359 15.553912 12.279404 33.973019 22.102928 54.745678 29.163585 18.521435 6.242031 37.65684 11.972419 56.996902 16.98651 15.963226 4.195463 29.879884 10.130509 41.545318 17.805136 10.130509 6.242031 17.293495 11.665434 21.898272 16.577196 4.604777 4.707105 6.446687 8.18627 7.265314 10.232837 1.330269 3.581493 1.944239 7.162986 1.944239 10.949136 0 6.549016-0.204657 13.507345-0.716299 21.079644-0.306985 3.888478-1.432597 9.618867-4.40012 12.484061-6.856001 6.549016-14.735285 13.609673-23.433196 20.772659-7.776956 6.753672-13.916658 15.144599-18.828421 25.275108-3.581493 7.469971-6.958329 15.246927-9.925851 23.023883-1.841911 5.321075-3.479165 10.437494-5.116419 15.451584-1.637254 1.023284-3.274508 2.046567-4.911762 3.172179-0.511642 0.409313-1.125612 0.818627-1.637254 1.227941-4.911762 4.093135-9.823524 9.311882-14.837613 15.860897-6.037374 7.776956-10.744479 17.702808-14.530629 30.391526-3.78615 12.791046-5.116419 24.968122-3.78615 36.019586 1.125612 9.823524 3.274508 18.726092 6.344359 26.40072 1.841911 5.116419 4.502448 10.437494 7.776957 15.65624-0.102328 19.135405 1.125612 38.475467 3.683821 57.508544 2.353553 18.726092 6.651344 38.987109 12.791046 60.066754 6.549016 22.512241 16.270211 43.182572 28.8566 61.397022 12.177076 17.293495 25.991406 31.721795 41.136005 43.080244 14.632957 10.846807 29.675227 19.647047 44.922155 25.991406 15.04227 6.242031 30.493854 10.744479 45.945438 13.302688 14.735285 2.455881 29.265914 3.683821 43.182572 3.683821h0.409314c18.112122 0 35.917258-2.251224 52.596782-6.651344C585.267113 818.435095 600.616369 812.909363 614.737684 806.155691c14.223643-6.753672 27.117018-14.530629 38.373138-22.921555 11.767763-8.80024 21.488958-18.112122 28.958929-27.62866 15.656241-20.056361 27.62866-42.466274 35.405616-66.51344 7.265314-22.512241 12.484061-44.103528 15.451584-64.159889 2.865194-19.135405 4.40012-38.577796 4.502448-57.815529 2.148896-2.660538 3.990806-5.62806 5.628061-8.800239 3.376836-6.139702 5.935045-13.20036 7.879284-21.693615 2.148896-9.311882 2.353553-19.647047 0.920956-31.721795-2.148896-15.246927-5.62806-27.117018-10.642151-36.838213-5.218747-9.925852-11.358449-18.009793-18.316778-24.149495-3.274508-2.967523-6.753672-5.525732-10.437494-7.776956-1.432597-5.01409-2.967523-9.925852-4.604777-14.735286-3.479165-9.209553-7.060658-17.191166-11.153792-24.968122-5.116419-9.925852-11.256121-18.009793-18.316778-24.149495-5.525732-4.911762-11.153792-9.311882-16.372539-12.995703-2.967523-2.046567-5.62806-4.195463-7.674628-6.242031-1.023284-1.023284-1.944239-2.353553-2.762866-4.093135-0.716299-1.637254-1.841911-4.604777-2.660538-9.721195-1.330269-6.651344-1.739582-12.688718-1.330269-18.726092 0.306985-5.218747 1.739582-10.437494 4.195464-15.860897 2.148896-4.809433 6.242031-9.823524 11.972419-14.837614 6.446687-5.62806 15.758569-10.949136 27.62866-15.758569 12.279404-4.911762 26.196063-9.41421 41.136005-13.200359 17.088838-4.297792 33.870691-9.618867 49.936244-15.758569 17.395823-6.651344 33.154392-15.246927 46.866394-25.377436 16.270211-12.074748 27.935645-28.140302 34.689317-47.685021 0.204657-0.716299 0.409313-1.330269 0.613971-2.046567 0.511642-2.148896 5.423404-21.079644 6.958329-35.610273 1.432597-13.81433 2.251224-27.730988 2.251224-41.545318 0-14.325972-1.125612-28.140302-3.274508-41.136005-2.558209-15.349256-6.651344-27.321675-12.58639-36.531228-0.204657-0.409313-0.511642-0.818627-0.818627-1.125612-6.446687-9.107225-17.60048-15.860897-37.04287-22.512242-13.712002-4.707105-30.596183-9.209553-50.243229-13.507345-19.033077-4.195463-40.82902-8.18627-64.67153-11.87009-23.535525-3.581493-47.275707-6.856001-70.401919-9.618867-23.330868-2.762866-46.252423-5.01409-68.150694-6.651344-22.0006-1.944239-41.545318-2.762866-58.122515-2.762866zM220.05716 42.888378c3.888478-1.432597 12.484061-4.195463 30.289198-8.083941 22.819227-5.01409 49.936245-10.02818 80.532427-14.837614 30.800839-4.809433 62.727291-9.107225 94.858399-12.586389 31.824123-3.479165 59.759768-5.525732 82.88598-5.218747 15.144599 0 33.154392 0.818627 53.824722 2.353552 21.079644 1.637254 43.284901 3.78615 65.899471 6.446688 22.512241 2.660538 45.536125 5.832717 68.457679 9.311881 22.716898 3.479165 43.284901 7.265314 61.192366 11.153793 17.60048 3.888478 32.540422 7.879285 44.308184 11.870091 5.321075 1.841911 8.595583 3.274508 10.539822 4.195463 0.920955 2.455881 2.148896 6.549016 3.274508 12.893374 1.637254 9.925852 2.455881 20.772659 2.455881 32.02878 0 11.870091-0.61397 23.84251-1.944239 35.712601-0.920955 8.288598-3.78615 20.977316-5.218747 26.40072-3.172179 8.493255-8.083941 15.246927-15.144599 20.465674-9.721195 7.265314-21.079644 13.302688-33.666034 18.21445-14.018987 5.321075-28.754272 10.02818-43.796542 13.81433-17.293495 4.40012-33.563705 9.618867-48.298991 15.553912-17.907465 7.265314-32.02878 15.553912-43.182572 25.377436-11.767763 10.335165-20.465674 21.591286-25.889077 33.666034-5.218747 11.460777-8.18627 23.330868-9.004897 34.996302-0.716299 10.949136 0 21.795943 2.148896 32.335765 1.330269 8.288598 3.683821 16.167882 7.060657 23.126212 3.581493 7.572299 8.18627 14.223643 13.81433 19.749375 4.40012 4.40012 9.618867 8.697911 15.349256 12.58639 3.376836 2.353553 7.162986 5.321075 11.25612 9.004896 1.22794 1.023284 3.274508 3.274508 5.832718 8.18627 3.069851 5.935045 5.832717 12.074748 8.186269 18.112122 2.046567 6.344359 4.40012 14.223643 6.344359 22.307584 2.353553 9.41421 9.516538 16.884181 18.82842 19.647047 1.637254 0.511642 3.376836 1.534926 5.218747 3.274508 1.22794 1.023284 3.274508 3.172179 5.832717 8.18627 1.125612 2.251224 3.376836 7.776956 5.01409 18.726091 0.818627 6.753672 0.306985 10.64215 0 12.279405-1.023284 4.604777-2.148896 6.651344-2.353552 7.162986-0.102328 0.204657-0.204657 0.306985-0.306985 0.511642-7.879285 5.218747-12.58639 14.121315-12.381733 23.740182 0.511642 20.158689-0.716299 40.726691-3.78615 60.987708-2.455881 17.088838-6.958329 35.610273-13.302688 55.154992-5.832717 17.907465-14.735285 34.586989-26.298391 49.526931-4.502448 5.62806-10.744479 11.563106-18.623763 17.498151-8.390926 6.242031-18.112122 12.074748-29.061258 17.293495-10.949136 5.218747-23.023883 9.618867-35.814929 12.995703-12.177076 3.172179-25.172779 4.809433-38.577796 4.809433-11.153792-0.204657-22.61457-0.920955-34.586989-2.967523-11.256121-1.841911-22.61457-5.116419-33.768362-9.721195-11.051464-4.604777-22.205256-11.051464-33.154392-19.237733-10.437494-7.776956-20.158689-18.009793-28.8566-30.391526-9.107225-13.20036-16.270211-28.447287-21.181973-45.22914-5.321075-18.21445-9.004897-35.610273-11.051464-51.573499-2.558209-19.44239-3.581493-38.987109-3.069851-58.32717 0.204657-6.549016-1.944239-12.893375-6.037374-17.907465-2.455881-3.069851-4.297792-6.242031-5.423403-9.41421-1.534926-3.990806-2.455881-8.083941-3.069851-12.995703-0.306985-2.558209-0.204657-7.060658 1.944239-14.121315 2.455881-8.390926 4.604777-11.563106 5.218746-12.381733 2.660538-3.479165 4.604777-5.423404 5.730389-6.549016 1.22794-0.818627 1.944239-1.023284 2.251224-1.125612 8.902568-2.558209 15.860897-9.41421 18.726092-18.21445 2.660538-8.595583 5.423404-16.986509 8.083941-25.070451 2.046567-5.218747 4.809433-11.563106 7.674628-17.702808 2.251224-4.707105 4.093135-6.651344 4.809433-7.265314 9.209553-7.572299 18.21445-15.553912 26.093735-23.126211 12.279404-11.870091 19.340062-27.935645 21.079644-47.889678 0.61397-9.311882 0.920955-17.60048 0.920955-25.377436 0-10.437494-1.841911-20.568002-5.423403-30.186869-3.78615-10.02818-10.130509-19.851704-19.135405-29.163585-7.981613-8.288598-18.419107-16.474868-32.131109-24.865794-16.065554-10.539822-35.610273-18.930748-57.303887-24.661137-18.112122-4.707105-35.917258-10.02818-53.210752-15.860898-14.735285-5.01409-27.526332-11.767763-38.168482-20.158689-7.674628-6.037374-12.381733-15.451584-14.632957-28.8566-5.01409-32.131108-6.242031-58.531828-3.581493-78.178875 1.534926-12.58639 3.376836-19.237734 4.502448-22.409913zM516.297792 14.338763c-1.125612 0-2.251224 0.102328-3.376837 0.409313-0.920955 0.204657-9.311882 2.455881-16.474867 7.060658-5.935045 3.888478-12.074748 8.493255-18.316779 13.81433-6.344359 5.321075-11.870091 10.949136-16.474867 16.474867-6.446687 7.776956-9.311882 14.018987-9.311882 20.363346 0 5.423404 1.023284 12.893375 3.17218 23.023883 1.944239 9.209553 4.195463 18.930748 6.651344 29.265914 2.558209 10.335165 5.218747 20.261017 7.981613 29.777556 1.432597 5.01409 2.762866 9.41421 3.990806 13.20036-3.888478 3.78615-7.367643 7.674628-10.437494 11.665434-6.037374 8.18627-8.902568 14.939942-8.902568 21.488958 0 6.958329 2.046567 13.81433 6.242031 20.465674 3.274508 5.218747 6.958329 9.925852 10.949135 14.018986 9.925852 9.925852 24.047167 15.553912 38.782453 15.553913h10.949135c13.405016 0 26.400719-4.809433 36.4289-13.405017l1.637254-1.432597c4.809433-4.093135 9.107225-9.107225 12.893374-14.837614 4.502448-6.856001 6.753672-14.018987 6.753673-21.079644 0-8.493255-2.865194-16.577196-8.390926-24.149495-2.865194-3.78615-6.037374-7.469971-9.618867-10.949136 1.125612-4.604777 2.353553-9.721195 3.683821-15.656241 2.251224-9.618867 4.40012-19.340062 6.549016-29.265913 2.251224-9.925852 4.195463-19.135405 5.832717-27.424004 1.841911-9.209553 2.762866-15.656241 2.762866-19.954032 0-6.242031-2.865194-12.58639-9.311882-20.261017-4.502448-5.525732-9.823524-10.949136-15.758569-16.270211-6.037374-5.423404-12.381733-10.232837-18.82842-14.223643-7.060658-4.297792-14.223643-7.060658-19.135405-7.367643-0.409313-0.306985-0.716299-0.306985-0.920955-0.306985z m-36.4289 59.452783c0.409313-0.716299 1.22794-2.046567 2.967523-4.093135 3.581493-4.297792 8.083941-8.697911 13.200359-13.098031 5.321075-4.502448 10.539822-8.493255 15.451584-11.665434 1.534926-1.023284 3.479165-1.841911 5.116419-2.455881 1.330269 0.511642 3.069851 1.432597 5.218747 2.660537 5.01409 3.172179 10.02818 6.958329 14.939942 11.256121 4.911762 4.40012 9.311882 8.902568 12.995703 13.302688 1.637254 2.046567 2.455881 3.274508 2.865194 3.990807-0.102328 1.841911-0.61397 5.730389-2.148896 13.200359-1.637254 8.18627-3.479165 17.088838-5.730389 26.912362-2.148896 9.823524-4.40012 19.544719-6.549015 29.061257-2.148896 9.311882-3.990806 16.986509-5.628061 22.921555-1.432597 5.321075 0.409313 10.949136 4.707105 14.325971 4.502448 3.581493 8.390926 7.572299 11.460778 11.767763 2.046567 2.762866 3.069851 5.423404 3.069851 7.879285 0 2.046567-1.22794 4.40012-2.353553 6.037373-2.353553 3.581493-4.809433 6.549016-7.674627 8.902569l-1.637254 1.432597c-5.218747 4.502448-11.665434 6.856001-18.521435 6.856001H510.669731c-7.469971 0-14.4283-2.660538-19.135405-7.367643-2.660538-2.660538-5.01409-5.730389-7.265314-9.209553-1.330269-2.148896-1.944239-3.990806-2.046568-5.730389 0.102328 0 0.920955-1.739582 3.376837-5.116419 3.376836-4.502448 7.776956-9.004897 12.893374-13.200359 4.40012-3.581493 6.139702-9.618867 4.297792-15.042271-1.637254-4.809433-3.78615-11.767763-6.446688-20.977316-2.660538-9.107225-5.218747-18.623763-7.674627-28.549615-2.455881-9.925852-4.604777-19.44239-6.446688-28.344958-1.637254-8.390926-2.148896-13.20036-2.353552-15.656241z"  horiz-adv-x="1024" />

    
    <glyph glyph-name="bars-y" unicode="&#58926;" d="M3.788741 896h174.044341v-1024H3.788741zM424.977829 896h174.014626v-1024h-174.014626zM846.166918 896h174.044341v-1024h-174.044341z"  horiz-adv-x="1024" />

    
    <glyph glyph-name="setting" unicode="&#58887;" d="M937.088 274.304H1024V493.76h-86.912c-88.192 0-109.248 50.944-47.04 113.152l61.568 61.568-155.2 155.136-61.504-61.504c-62.272-62.272-113.28-41.152-113.088 46.912l-0.128 0.512V896H402.368v-87.232c-0.256-87.872-51.072-108.928-113.28-46.656l-61.568 61.504-155.136-155.136 61.504-61.568c62.272-62.208 41.152-113.152-46.848-113.152H0v-219.456h87.04c88 0 109.12-50.944 46.848-113.216l-61.504-61.504 155.136-155.2 61.568 61.568c62.208 62.144 113.024 41.152 113.28-46.656V-128h219.328v86.464l0.128 0.512c-0.192 88.064 50.816 109.184 113.152 46.976l61.44-61.568 155.2 155.2-61.568 61.504c-62.144 62.272-41.152 113.216 47.04 113.216zM512 192a192 192 0 1 0 0 384 192 192 0 0 0 0-384z"  horiz-adv-x="1024" />

    
    <glyph glyph-name="purchase" unicode="&#58957;" d="M180.8 624.2l103.5-481.5h598.9L960 624.2H282.2l-39 177.4-0.3 1.2H141.5l0.3-1.2H64v-76h94.6l22.2-101.4z m254.4-658.9c-35.3 0-64 28.4-64 63.4s28.7 63.4 64 63.4c35.4 0 64-28.4 64-63.4s-28.7-63.4-64-63.4z m281.6 0c-35.4 0-64 28.4-64 63.4s28.6 63.4 64 63.4c35.3 0 64-28.4 64-63.4s-28.7-63.4-64-63.4z"  horiz-adv-x="1024" />

    
    <glyph glyph-name="message" unicode="&#58918;" d="M611.223389 805.003636C611.223389 855.156364 566.656116 896 511.73248 896s-99.607273-40.727273-99.607273-90.996364a83.432727 83.432727 0 0 1 1.396364-15.010909c-137.425455-43.752727-250.298182-178.385455-250.298182-337.454545v-125.44s0-180.48-48.523636-182.109091a45.730909 45.730909 0 1 1-1.28-90.996364h796.509091a45.730909 45.730909 0 1 1 0 90.996364C860.125207 145.105455 860.125207 325.818182 860.125207 325.818182V452.421818a352.581818 352.581818 0 0 1-250.181818 337.454546 84.130909 84.130909 0 0 1 1.28 14.894545z m49.803636-796.392727C660.910662-66.90909099999999 594.699753-128 511.73248-128s-149.178182 60.858182-149.294545 136.610909z"  horiz-adv-x="1024" />

    
    <glyph glyph-name="full-screen" unicode="&#58914;" d="M285.92122 765.789235l119.091763 113.534147a5.756102 5.756102 0 0 1-3.771239 9.924314L43.569484 895.996229a16.871333 16.871333 0 0 1-12.107663-4.763671 17.069819 17.069819 0 0 1-5.359129-11.909176L17.369296 523.239012a5.756102 5.756102 0 0 1 9.527341-4.168212l122.664515 116.709928 156.407182-164.743605a17.069819 17.069819 0 0 1 24.016838 0l111.549285 106.388641a16.871333 16.871333 0 0 1 5.359129 12.107663 17.069819 17.069819 0 0 1-4.763671 12.306148z m39.697254-455.129019a16.871333 16.871333 0 0 1-24.016838 0l-164.148146-156.010209L21.735994 277.314523a5.756102 5.756102 0 0 1-9.725827-3.77124L1.887367-85.31989399999998a17.069819 17.069819 0 0 1 4.76367-12.306149 16.672847 16.672847 0 0 1 11.909176-5.359129l357.275288-8.336424a5.756102 5.756102 0 0 1 4.168212 9.725828l-113.335661 119.091762 164.148146 156.605668a17.268306 17.268306 0 0 1 0 24.413811z m690.533737 555.761558a16.871333 16.871333 0 0 1-11.909177 5.35913l-357.275287 11.115231a5.756102 5.756102 0 0 1-4.366698-9.725827l113.335661-119.091763L591.788564 598.2668229999999a17.268306 17.268306 0 0 1 0-24.215326L696.589315 461.311296a17.069819 17.069819 0 0 1 24.016838 0l165.140578 156.804154 116.511441-122.863002a5.557616 5.557616 0 0 1 6.153074-1.389404 5.756102 5.756102 0 0 1 3.572753 5.160643l9.130368 355.290425a17.069819 17.069819 0 0 1-4.565184 12.107662z m-14.092526-612.528631a5.557616 5.557616 0 0 1-6.153074-0.992432l-122.664515-116.709927L716.437942 300.537416a17.069819 17.069819 0 0 1-24.016839 0l-111.549284-106.388641a17.268306 17.268306 0 0 1 0-24.413811l156.208695-164.545119-119.091763-113.534147a5.756102 5.756102 0 0 1 3.771239-9.924313l357.275288-9.725827a16.672847 16.672847 0 0 1 12.107662 4.76367 17.268306 17.268306 0 0 1 5.35913 12.107663l8.733396 358.863177a5.756102 5.756102 0 0 1-2.778808 6.351561z"  horiz-adv-x="1024" />

    
    <glyph glyph-name="home" unicode="&#59066;" d="M867.23 334.24c-81.208 66.492-162.032 133.363-243.044 200.11-37.245 30.65-74.49 61.302-111.795 92.085-3.263-2.37-6.016-4.29-8.64-6.4-116.53-96.118-233.19-192.17-349.467-288.608-4.287-3.583-7.293-11.328-7.357-17.151-0.45-97.334-0.385-194.733-0.257-292.066 0-30.204 15.934-45.816 46.46-45.816 74.936-0.064 149.807 0 224.742 0 4.03 0 8.062 0.448 13.183 0.766V219.56600000000003h161.837V-23.66999999999996H829.54c32.762 0 47.928 15.229 47.928 48.31 0.066 95.673-0.128 191.341 0.192 286.948 0.064 9.854-2.814 16.32-10.43 22.65z m142.45 65.98c-38.078 31.675-75.77 63.798-114.55 94.58-13.18 10.432-18.237 21.117-18.044 38.206 1.023 76.598 0.511 153.261 0.446 229.86 0 18.62-5.887 26.173-21.5 26.3-39.805 0.321-79.608 0.321-119.41 0-14.017-0.127-20.8-7.037-21.313-21.308-0.51-12.672-0.19-25.405-0.19-38.077v-84.023c-6.4 5.12-9.984 7.936-13.504 10.877a240534.38 240534.38 0 0 1-132.528 110.773c-38.842 32.316-75.125 32.38-114.035 0-81.017-67.384-161.968-134.897-242.984-202.345-65.656-54.714-131.312-109.494-197.034-164.207-19.006-15.869-19.646-23.87-3.455-43.068 9.279-11.007 18.431-22.076 27.708-33.083 13.887-16.447 23.038-17.278 39.548-3.46 108.852 90.809 217.703 181.744 326.619 272.55C440.78 623.296 476.23 652.797 512 682.616c35.709-29.757 70.842-59 105.91-88.247 109.17-91.123 218.409-182.25 327.58-273.377 16.317-13.63 25.406-12.67 39.418 3.966 9.536 11.328 19.007 22.718 28.544 34.047 14.912 17.727 14.142 26.305-3.773 41.214z"  horiz-adv-x="1024" />

    
    <glyph glyph-name="help" unicode="&#58948;" d="M32.73525973 382.78823998999997v4.89526293c0.33032853 2.80246827 0.7501664 5.5964128 0.97713494 8.4074048 1.53443093 19.08449067 2.0938592 38.3021792 4.70345813 57.23642454 8.7579808 63.55849387 29.9874784 122.898368 63.13865707 177.80330773 45.8411392 75.91812587 107.89823467 135.03742507 186.11694293 176.88264853 59.35479147 31.75207467 122.70230187 50.01713707 189.9412992 54.7536288 44.40367467 3.12746987 88.39816853 0.51680533 131.97175893-8.52355413 51.89574933-10.76552853 100.7215712-29.59321493 146.2728736-56.72068373 76.6011616-45.62269547 136.38218347-107.61798827 178.60994987-186.0828448 44.1980192-82.13044267 62.2798016-170.00221547 55.45158187-263.04949867-3.37894613-46.05105813-13.16307733-90.67424213-29.8617408-133.65537067-39.74710187-102.31354347-106.38298347-182.69004587-200.2347776-239.44696-101.29165547-61.25365013-211.1057984-81.20125867-327.87070187-62.28406293-52.94747413 8.5778976-102.93264427 26.19615467-149.80952427 52.23353707-80.58109333 44.7574464-143.65048747 107.30790507-188.56777066 187.852768-33.6157696 60.27971307-53.27354133 124.89099733-58.45011627 193.80295253-0.8982816 11.95577813-1.59623467 23.92967147-2.38795947 35.89504z m496.1914368 211.65030827c9.05208-1.18066027 18.228832-1.76566187 27.1338624-3.6432096 40.16693973-8.462816 57.18207893-60.1401216 30.67371094-91.59596587-16.08915307-19.09301547-35.79167893-33.84486933-55.6167456-48.51360747-50.8301728-37.60209493-77.26501653-87.68849387-76.96878614-151.14682453 0.03516373-7.4057632 2.15140053-15.5350528 5.67633067-22.04679573 9.40691733-17.37956693 25.1710688-24.63934613 44.66687253-26.28353174 34.8454464-2.93886293 62.31603093 26.73107413 59.99413867 54.67584107-0.85672427 10.31052693 0.68410027 21.32859733 3.54517547 31.33223787 5.66567467 19.80162453 19.9156416 33.9311808 35.64889173 46.20023893 21.51720427 16.77964693 44.3226912 31.971584 65.22079467 49.46516693 21.60138453 18.0839136 36.06979413 41.39981227 41.09186026 69.6674496 5.01354133 28.22927573 2.44123733 56.11863253-5.74878933 83.3856928-16.7114496 55.6348608-54.82289067 89.19095787-110.0538976 103.98223787-31.28109013 8.37756907-63.24734613 8.7579808-95.2839296 5.1030496-49.9180384-5.69764267-93.9540896-24.51147627-130.22634347-59.75970987-15.0640672-14.6367712-27.06779627-31.6465824-32.722816-52.23673493-3.94796373-14.37357333-4.17919467-28.85796693 4.86862294-41.66620693 15.49029867-21.92638613 48.44541013-28.15468587 72.46672106-14.59308267 11.4645472 6.4712512 18.60498133 16.83505707 26.47426987 26.6905824 10.64618347 13.33357013 22.4804864 25.1987744 38.72627947 31.8479776 16.18292373 6.6183008 33.12027627 8.08453547 50.43377706 9.13412907z m42.2458816-463.07116054c0 3.99271893 0.0021312 6.641744 0 9.29290027-0.02770453 23.70163733-11.48479253 40.28521813-32.4116672 50.26221973-18.9768672 9.046752-38.8957056 8.64929173-58.31905066 2.00861334-17.76424107-6.07379093-31.6433856-17.74719147-36.49496-36.4928288-2.59681173-10.02921387-2.06189227-20.968432-2.21746667-31.5080576-0.34311573-23.17098027 11.88225387-38.7497216 31.55494293-48.94090347 15.3602976-7.95560107 32.06002667-9.16396587 48.8556576-6.38280853 18.64866987 3.08910933 33.20765333 12.75282987 42.8543264 29.33321386 6.12600427 10.52897067 6.38493973 22.09794347 6.1792832 32.4265856z"  horiz-adv-x="1024" />

    
    <glyph glyph-name="key" unicode="&#58919;" d="M753.4000352 340.41855999999996c-46.8436768-46.7535648-131.1311648-40.37745813-201.96010667 10.5494752L336.00625813 135.4729248c-16.6770912-16.75946667-43.9032032-16.60199787-60.588032 0.14336-16.6770912 16.75946667-16.6770912 43.84267413 0 60.52021973l16.3985632 16.384-46.53511146 46.45956267c-8.3535648 8.33809067-8.49601387 21.88765867 0 30.23394133 8.33900053 8.33809067 21.95592533 8.33809067 30.13654826 0l46.55012907-46.47503573 15.0751008 15.15064853-16.11275413 16.0909088c-8.33900053 8.35310933-8.33900053 21.962752-0.1356224 30.22620374 8.48145067 8.42092053 21.9481888 8.3458272 30.44420266 0l16.09090774-16.09864534 15.0751008 15.07555627-46.399488 46.46001707a21.13399467 21.13399467 0 0 0 0 30.2262048c8.20383253 8.42092053 21.81256533 8.34628267 30.15111146 0l46.54239254-46.46775467 78.15213546 78.2276832c-50.6324768 70.69377387-57.0841312 154.98126187-10.248192 201.65973333 54.15185067 54.2947552 159.2297248 37.17393067 234.59202774-38.19701973 75.37004053-75.36275947 92.49086613-180.44017813 38.19656533-234.67440427h0.0077376zM512.07827947 869.55349333c-268.26251413 0-485.58990187-217.40430187-485.58990294-485.50798186 0-268.25477653 217.32875413-485.58990187 485.58990294-485.58990294 268.24704 0 485.43061333 217.33649067 485.43061333 485.58990294 0 268.10413547-217.19358613 485.50798187-485.43061333 485.50798186z m59.10618986-316.92481386c-20.92509867-20.85774187-10.66917013-64.888832 22.83565547-98.40867627 33.51893333-33.5193888 77.57323413-43.75301653 98.49833173-22.83474453 20.774912 20.865024 10.53400213 64.89656853-22.8352 98.34040853-33.6550112 33.5198432-77.56640747 43.7680352-98.4987872 22.89527467v0.0077376z"  horiz-adv-x="1024" />

    
    <glyph glyph-name="car-loan" unicode="&#58882;" d="M758.4 422.4c-140.8 0-259.2-115.2-259.2-252.8s115.2-252.8 259.2-252.8 259.2 115.2 259.2 252.8-115.2 252.8-259.2 252.8z m86.4-236.8v-28.8h-67.2v-35.2h67.2v-28.8h-67.2v-54.4h-32v54.4h-70.4v28.8h70.4v35.2h-70.4v28.8h57.6c-25.6 38.4-48 83.2-73.6 121.6h35.2c3.2 0 6.4 0 9.6-3.2l57.6-105.6c22.4 35.2 38.4 70.4 57.6 112 3.2 3.2 3.2 3.2 6.4 3.2h35.2l-70.4-128h54.4zM476.8 220.79999999999995h-115.2c-9.6 0-22.4 9.6-22.4 22.4 0 12.8 6.4 22.4 22.4 22.4h128c3.2 12.8 9.6 22.4 16 35.2h-140.8c-9.6 0-22.4 9.6-22.4 22.4 0 12.8 6.4 22.4 22.4 22.4h169.6c51.2 70.4 137.6 115.2 230.4 115.2 102.4 0 192-51.2 243.2-131.2-6.4 99.2-41.6 185.6-108.8 230.4-16 128-57.6 230.4-121.6 284.8-19.2 16-70.4 16-70.4 16H310.4s-51.2-3.2-70.4-16c-64-54.4-105.6-153.6-121.6-284.8C44.8 512 9.6 416 9.6 304c0-80 22.4-160 64-211.2v-163.2c0-12.8 9.6-25.6 22.4-25.6h150.4c9.6 0 22.4 12.8 22.4 25.6v86.4h252.8c-35.2 38.4-51.2 92.8-51.2 150.4 0 19.2 3.2 35.2 6.4 54.4zM211.2 675.2l9.6 28.8c28.8 57.6 57.6 96 96 105.6h377.6c51.2-12.8 76.8-32 102.4-102.4 0 0 25.6-60.8 32-121.6-3.2 0-12.8 3.2-12.8 3.2-12.8 3.2-22.4 3.2-35.2 3.2h-544c-12.8 0-19.2 3.2-32 0-3.2 0-12.8-3.2-16-6.4 3.2 28.8 12.8 60.8 22.4 89.6z m-6.4-470.4c-51.2 0-96 41.6-96 96 0 51.2 41.6 96 96 96 51.2 0 96-41.6 96-96s-44.8-96-96-96z"  horiz-adv-x="1024" />

    
    <glyph glyph-name="bars-x-1" unicode="&#58893;" d="M1111.232 718.08H104.768A72.864 72.864 0 0 0 32 791.04C32 831.36 64.64 864 104.768 864h1006.464c40.224 0 72.768-32.64 72.768-72.96s-32.64-72.96-72.768-72.96z m0-407.04H104.768A72.864 72.864 0 0 0 32 384c0 40.32 32.64 72.96 72.768 72.96h1006.464c40.224 0 72.768-32.64 72.768-72.96s-32.64-72.96-72.768-72.96z m0-407.04H104.768A72.864 72.864 0 0 0 32-23.039999999999964c0 40.32 32.64 72.96 72.768 72.96h1006.464c40.224 0 72.768-32.64 72.768-72.96s-32.64-72.96-72.768-72.96z"  horiz-adv-x="1228" />

    
    <glyph glyph-name="user-header" unicode="&#58885;" d="M658.5082311111112 554.1034666666667c0 81.22254222222223-66.08213333333333 147.3024-147.3024 147.3024-81.22254222222223 0-147.3024-66.07985777777779-147.3024-147.3024S429.98328888888886 406.8010666666667 511.20583111111114 406.8010666666667c81.22140444444445 0 147.3024 66.07985777777779 147.3024 147.3024zM873.4173866666667 743.90528C777.1010844444445 840.2215822222222 649.0396444444445 893.2659199999999 512.8283022222222 893.2659199999999c-136.21475555555554 0-264.27505777777776-53.045475555555555-360.59136-149.36177777777777C55.91950222222226 647.5889777777778 2.8763022222222503 519.5275377777778 2.8763022222222503 383.31392000000005c0-136.2113422222222 53.04433777777778-264.27392 149.36064-360.5902222222222 96.31857777777778-96.31857777777778 224.37887999999995-149.36291555555556 360.59136-149.36291555555556 136.2113422222222 0 264.27392 53.04433777777778 360.5902222222222 149.36291555555556 96.31857777777778 96.31630222222223 149.36291555555556 224.37887999999995 149.36291555555556 360.5902222222222-0.002275555555555556 136.21361777777778-53.045475555555555 264.27392-149.36405333333332 360.59136z m-109.99580444444445-646.6286933333334c-12.572444444444445 0-22.765795555555556 10.19335111111111-22.765795555555556 22.764657777777774 0 126.52088888888886-102.93020444444443 229.45109333333332-229.44995555555553 229.45109333333332s-229.44995555555553-102.93020444444443-229.44995555555553-229.45109333333332c0-12.572444444444445-10.192213333333333-22.764657777777774-22.765795555555556-22.764657777777774-12.572444444444445 0-22.764657777777774 10.19335111111111-22.764657777777774 22.764657777777774 0 121.75473777777778 79.54887111111111 225.2640711111111 189.39676444444441 261.3293511111111-63.495964444444446 31.58926222222222-107.25034666666667 97.13208888888889-107.25034666666667 172.73400888888887 0 106.32760888888888 86.50524444444446 192.83399111111112 192.83399111111112 192.83399111111112s192.83399111111112-86.50524444444446 192.83399111111112-192.83399111111112c0-75.60078222222222-43.754382222222226-141.1436088888889-107.25034666666667-172.73400888888887 109.84789333333333-36.06528 189.3979022222222-139.57347555555555 189.3979022222222-261.3293511111111 0-12.572444444444445-10.19448888888889-22.764657777777774-22.766933333333334-22.764657777777774z"  horiz-adv-x="1024" />

    
    <glyph glyph-name="report" unicode="&#59050;" d="M980.339472-127.99906899999996H43.659597A43.380324 43.380324 0 0 0 0-84.89801699999998v17.221802C0-43.844964000000004 22.434889-34.908244999999965 46.545412-34.908244999999965h930.908245c24.110524 0 46.545412-8.936719 46.545412-32.76797v-17.221802c0-23.831251-19.549073-43.101052-43.659597-43.101052zM884.362832 104.72799199999997c0-28.578883-17.640711-46.545412-46.545412-46.545412h-93.090824c-28.904701 0-46.545412 17.966529-46.545413 46.545412V616.727527c0 28.578883 17.640711 46.545412 46.545413 46.545412h93.090824c28.904701 0 46.545412-17.966529 46.545412-46.545412v-511.999535z m-325.817885-46.545412h-93.090825c-28.904701 0-46.545412 17.966529-46.545412 46.545412V849.4545880000001c0 28.578883 11.822535 46.545412 40.727236 46.545412H558.544947c28.904701 0 46.545412-17.966529 46.545412-46.545412v-744.726596c0-28.578883-17.640711-46.545412-46.545412-46.545412z m-279.272474 0H186.181649c-28.904701 0-46.545412 17.966529-46.545412 46.545412v279.272473c0 28.532338 40.913417 46.545412 69.818118 46.545413h58.181765c28.904701 0 58.181765-18.013075 58.181766-46.545413v-279.272473c0-28.578883-17.640711-46.545412-46.545413-46.545412z"  horiz-adv-x="1024" />

    
    <glyph glyph-name="log" unicode="&#58898;" d="M919.03863467 622.0813653299999l-204.8 219.30530134c-12.80136533 12.80136533-29.868032 20.48-47.78666667 20.48H113.491968c-14.50530133 0-26.45469867-11.94939733-26.45469867-26.45469867v-350.72136533c0-5.12273067 4.26530133-8.536064 8.536064-8.536064h34.98530134c5.12273067 0 8.536064 4.26530133 8.536064 8.536064V802.13060267c0 3.41333333 2.56136533 6.82666667 6.82666666 6.82666666h489.816064c2.56136533 0 5.97469867-2.56136533 5.97469867-5.12273066v-225.28c0-14.50530133 11.94939733-26.45469867 26.45469867-26.45469867h209.06530133c2.56136533 0 5.97469867-2.56136533 5.97469867-5.97469867v-580.26666666c0-3.41333333-2.56136533-6.82666667-6.82666667-6.82666667H96.42530133c-5.12273067 0-8.536064-4.26530133-8.536064-9.388032v-34.13333333c0-5.12273067 4.26530133-9.388032 8.536064-9.388032h814.08273067c14.50530133 0 26.45469867 11.94939733 26.45469867 26.45469866V577.708032c-0.85742933 16.20923733-6.82666667 32.423936-17.924096 44.37333333zM177.83739733 443.392V91.81866666999997H97.96539733V443.392h79.872zM370.34939733 87.72266666999997c-87.392256 2.752512-133.12 47.775744-137.216 135.168 4.096 88.735744 49.823744 135.168 137.216 139.264 87.359488-4.096 133.12-50.528256 137.216-139.264-4.096-87.392256-49.856512-132.415488-137.216-135.168z m0 49.152c38.207488 0 57.344 28.672 57.344 86.016 1.343488 58.687488-17.760256 88.064-57.344 88.064-36.864 0-55.296-29.376512-55.296-88.064 0-57.344 18.432-86.016 55.296-86.016zM818.86139733 116.39466666999999c2.719744-84.639744-40.288256-126.271488-129.024-124.928-80.576512 0-121.536512 28.672-122.88 86.016h73.728c2.719744-21.823488 17.727488-32.768 45.056-32.768 43.679744 0 61.44 29.376512 53.248 88.064-15.040512-23.232512-39.616512-34.816-73.728-34.816-66.912256 4.096-103.104512 47.775744-108.544 131.072 5.439488 84.639744 42.303488 129.024 110.592 133.12 35.487744 0 59.392-12.288 71.68-36.864v30.72h79.872V116.39466666999999z m-131.072 32.768c34.111488 0 51.2 25.919488 51.2 77.824 0 55.967744-17.088512 83.968-51.2 83.968-34.144256 0-51.2-28.000256-51.2-83.968 0-51.904512 17.055744-77.824 51.2-77.824z"  horiz-adv-x="1024" />

    
    <glyph glyph-name="shutdown" unicode="&#58909;" d="M511.26355155-80.69896498000003c-257.60966395 0-466.61373093 208.85677728-466.61373091 466.61373092 0 203.11247946 129.90950463 375.2941245 311.07582062 439.51242837v-183.81753036c-86.45904672-52.72970823-144.7857631-146.99510841-144.78576311-255.69489801 0-165.84818846 134.47548495-300.17638371 300.17638372-300.17638372s300.17638371 134.47548495 300.17638373 300.17638372c0 108.6997896-58.32671636 202.96518978-144.7857631 255.69489801V825.42719431C847.82048816 761.20889043 977.87728249 589.02724541 977.87728249 385.91476594c0-257.60966395-209.00406699-466.61373093-466.61373094-466.61373092z m0 373.23206886c-51.55139072 0-93.38166206 41.83027133-93.38166205 93.38166206V759.14683481c0 51.55139072 41.83027133 93.38166206 93.38166205 93.38166204s93.38166206-41.83027133 93.38166207-93.38166204v-373.23206887c-0.1472897-51.55139072-41.83027133-93.38166206-93.38166207-93.38166206z"  horiz-adv-x="1024" />

    
    <glyph glyph-name="flow" unicode="&#58917;" d="M869.76 792.896h-213.632A153.984 153.984 0 0 1 512 895.104a153.792 153.792 0 0 1-144.128-102.208H154.176c-56.192 0-102.208-46.016-102.208-102.208V-24.960000000000036c0-56.128 46.016-102.144 102.208-102.144H869.76c56.256 0 102.272 46.016 102.272 102.144V690.688c0 56.192-46.016 102.208-102.272 102.208z m-357.76 0c28.032 0 51.136-22.976 51.136-51.136s-23.104-51.072-51.136-51.072c-28.16 0-51.2 22.976-51.2 51.072s23.04 51.136 51.2 51.136z m102.144-715.52h-357.76v102.144h357.696v-102.144z m153.344 204.352H256.384V384h511.104v-102.272z m0 204.48H256.384V588.4159999999999h511.104v-102.208z"  horiz-adv-x="1024" />

    
    <glyph glyph-name="insurance" unicode="&#58883;" d="M919.910602 770.223123L543.731969 891.010005c-20.47198 6.652994-42.991958 6.652994-63.463938 0L104.089398 770.223123c-31.731969-10.23599-53.227948-39.409962-53.227948-72.676929v-264.603742c0-152.519851 74.211928-297.872709 198.580806-388.46262l217.006788-157.636846C479.756031-122.88100499999996 495.622016-127.99900000000002 512-127.99900000000002c16.889984 0 32.243969 5.117995 45.549956 14.841986L774.558744 44.480831999999964c124.368879 90.589912 198.580806 235.94377 198.580806 388.46262V697.546194c0 33.267968-21.495979 62.440939-53.227948 72.676929z m-158.659845-557.358456c-3.582997-5.117995-8.189992-7.676993-14.842986-7.676992-6.141994 0-15.353985 4.094996-28.149972 11.771988s-28.148973 19.447981-47.085954 34.802966c-15.353985 12.282988-30.195971 26.101975-45.038956 41.45596-14.841986 15.353985-28.660972 31.731969-42.479959 49.644951v-157.635846c0-13.306987-6.652994-19.960981-20.47198-19.96098-13.306987 0-19.959981 6.653994-19.95998 19.95998V350.54253300000005c-12.283988-16.377984-26.102975-32.755968-40.944961-48.109953-14.842986-15.354985-30.70897-29.684971-46.574954-42.991958-42.479959-33.267968-70.629931-49.645952-83.424919-49.645952-3.069997 0-5.629995 0.512-7.676992 1.535999s-4.093996 2.558998-5.629995 4.093996v-28.660972c0-14.329986-7.164993-20.98398-20.983979-20.98398-13.818987 0-20.47198 7.164993-20.47198 20.98398V439.083446c-1.023999-1.022999-1.534999-1.534999-1.534999-2.046998v0.512l-4.094996-7.676993c-10.23599-17.401983-16.889984-28.149973-20.47198-31.219969-3.582997-2.559998-7.165993-4.606996-10.747989-5.629995-3.582997-1.535999-7.165993-2.047998-11.259989-2.047998l-0.512 0.512c-3.069997 0.512-6.141994 2.046998-8.699991 4.605995-2.559998 2.047998-4.094996 5.118995-5.118995 9.212991-1.022999 3.582997-0.511 8.188992 1.023999 13.306987 1.534999 5.117995 4.605996 11.259989 9.212991 17.912983 22.006979 32.755968 39.408962 65.511936 53.227948 97.755904 13.306987 32.754968 24.565976 67.557934 32.242968 105.431897 5.118995 20.98398 12.795988 31.21997 23.031978 31.21997 13.306987 0 19.959981-8.699992 19.95998-25.589975 0-7.676993-3.581997-24.054977-11.259989-49.644952-3.069997-11.259989-6.652994-22.519978-10.746989-34.291966-3.582997-11.259989-8.189992-23.029978-13.306987-34.289967v-285.589721c5.117995 6.141994 13.306987 11.259989 24.054976 16.377984s22.006979 12.794988 34.802966 22.007979c12.794988 9.723991 26.101975 20.98398 39.919961 33.779967 12.283988 11.259989 24.055977 23.029978 35.314966 35.825965 11.259989 12.794988 22.007979 26.101975 32.243969 39.409961H386.607122c-12.794988 0-18.936982 6.139994-18.936981 17.911983 0 8.700992 1.535999 14.842986 4.605995 17.913982 3.070997 3.069997 7.677993 4.605996 14.330986 4.605996h157.124847v43.503957h-81.88992c-15.352985 0-26.612974 3.581997-33.266968 10.74799-6.652994 7.164993-10.23599 18.936982-10.23599 35.313965v86.495916c0 15.865985 3.582997 27.125974 10.74799 34.290966 7.164993 7.164993 17.912983 10.74799 32.755968 10.74799h204.210801c15.353985 0 26.101975-3.582997 32.243968-10.23599 6.653994-6.653994 9.723991-18.424982 9.723991-35.314966v-85.471916c0-16.377984-3.581997-28.149973-10.23599-35.314966-6.652994-7.164993-17.400983-10.74799-32.243969-10.747989h-81.88892v-43.502958h155.589848c12.794988 0 19.447981-6.653994 19.447981-20.47298 0-13.306987-6.652994-19.959981-19.447981-19.95998h-144.329859c10.74799-13.818987 22.007979-27.125974 33.779967-40.432961 11.769989-13.306987 23.541977-25.589975 34.289967-35.825965 13.819987-13.306987 27.125974-25.078976 39.920961-35.314965 12.795988-10.23599 25.078976-17.912983 36.338964-24.054977 17.400983-10.74799 26.101975-19.959981 26.101975-27.637973 1.023999-4.093996-0.512-8.188992-4.093996-13.306987zM667.077849 519.437368v75.235926c0 7.164993-3.070997 10.74799-8.699992 10.74799H467.984043c-5.629995 0-8.700992-3.582997-8.700992-10.74799v-75.235926c0-7.164993 3.069997-10.74799 8.699992-10.74799H658.889857c5.629995 0 8.188992 3.582997 8.188992 10.74799z"  horiz-adv-x="1024" />

    
    <glyph glyph-name="left" unicode="&#58891;" d="M801.2026-50.780446l-75.411133-76.713196L298.534049 307.286804 223.159084 384l75.374965 76.713196L725.791467 895.493642l75.411133-76.713196L373.945182 384z"  horiz-adv-x="1024" />

    
    <glyph glyph-name="lock" unicode="&#58943;" d="M780.8 541.425h-115.2v42.8875c0 72.3125-19.85 193.3-153.6 193.3-138.875 0-153.6-135-153.6-193.3v-42.8875H243.2v42.8875C243.2 773.75 348.7875 896 512 896s268.75-122.25 268.75-311.6875v-42.8875z m-192-314.85c0 43.525-34.575 78.65-76.8 78.65s-76.8-35.125-76.8-78.65c0-29.4625 15.4-54.475 38.4375-67.825v-89.625c0-21.7375 17.25-39.7 38.4-39.7S550.5 47.375 550.5 69.125v89.6375c23 13.35 38.3625 38.3625 38.3625 67.825zM896 384v-393.6125c0-65.2625-51.875-118.3875-115.2-118.3875H243.2C179.9125-128 128-74.875 128-9.612499999999955V384c0 65.225 51.875 118.3875 115.2 118.3875h537.6c63.325 0 115.2-53.175 115.2-118.3875z"  horiz-adv-x="1024" />

    
    <glyph glyph-name="finance" unicode="&#58895;" d="M884.544 896H139.52C97.856 896 64 867.2 64 831.808v-895.68C64-99.2 97.856-128 139.456-128H884.48c41.6 0 75.456 28.8 75.456 64.128V831.808C960 867.2 926.144 896 884.544 896zM278.912-36.736a68.352 68.352 0 0 0-68.032 68.672c0 37.888 30.464 68.672 68.032 68.672 37.504 0 67.968-30.72 67.968-68.672 0-37.888-30.464-68.672-67.968-68.672z m0 204.16c-37.568 0-68.032 30.72-68.032 68.672 0 37.888 30.464 68.672 68.032 68.672 37.504 0 67.968-30.72 67.968-68.672 0-37.888-30.464-68.672-67.968-68.672z m0 204.16A68.352 68.352 0 0 0 210.88 440.32c0 37.888 30.464 68.672 68.032 68.672 37.504 0 67.968-30.784 67.968-68.672s-30.464-68.736-67.968-68.736z m233.728-408.32a68.352 68.352 0 0 0-67.968 68.672c0 37.888 30.464 68.672 67.968 68.672 37.504 0 67.968-30.72 67.968-68.672 0-37.888-30.464-68.672-67.968-68.672z m0 204.16c-37.504 0-67.968 30.72-67.968 68.672 0 37.888 30.464 68.672 67.968 68.672 37.504 0 67.968-30.72 67.968-68.672 0-37.888-30.464-68.672-67.968-68.672z m0 204.16A68.352 68.352 0 0 0 444.672 440.32c0 37.888 30.464 68.672 67.968 68.672 37.504 0 67.968-30.784 67.968-68.672S550.144 371.584 512.64 371.584z m233.792-408.32A68.416 68.416 0 0 0 678.4 31.936c0 37.888 30.528 68.672 68.032 68.672s67.968-30.72 67.968-68.672c0-37.888-30.464-68.672-67.968-68.672z m0 204.16c-37.504 0-68.032 30.72-68.032 68.672 0 37.888 30.528 68.672 68.032 68.672s67.968-30.72 67.968-68.672c0-37.888-30.464-68.672-67.968-68.672z m0 204.16A68.416 68.416 0 0 0 678.4 440.32c0 37.888 30.528 68.672 68.032 68.672s67.968-30.784 67.968-68.672-30.464-68.736-67.968-68.736z m87.808 245.056a35.2 35.2 0 0 0-34.944-35.392H228.48a35.136 35.136 0 0 0-34.944 35.392V726.976a35.2 35.2 0 0 0 34.944 35.328h570.816a35.2 35.2 0 0 0 34.944-35.328v-110.336z"  horiz-adv-x="1024" />

    
    <glyph glyph-name="license" unicode="&#59021;" d="M589.1 564H523c-13 0-17.6-4.6-17.6-17.5v-37h83.7V564zM521 402.4l51.8 0.1c6.3 19.7 11 37.9 14.2 54.5h-81.6v-37c0-8.2 1.6-14.2 4.3-16.4 2.5-2.1 7.6-1.8 11.3-1.2z m204.1 144.1c0.8 5.7 1.1 10.7-1.1 13.3-2.3 2.7-8.3 4.2-16.4 4.2h-66.1v-54.5h83.7v37zM723.7 404c2 2 2.6 7.4 1.6 14.5l-0.1 38.6h-85.7c-3-15.2-7.6-33.5-13.6-54.5h81.7c8.7-1.1 14.1-0.6 16.1 1.4z m19.9 422.5H280.3C161.2 826.5 63.8 729 63.8 609.9v-463.4c0-119.1 97.4-216.5 216.5-216.5h463.3c119.1 0 216.5 97.4 216.5 216.5V609.9c0.1 119.1-97.4 216.6-216.5 216.6z m47.8-601l-2.8-1.7H680.3v-128.3l-2.3-3.1c-7.1-9.5-15.2-14.3-23.9-14.4-8.7 0-16.7 4.8-23.9 14.4l-2.3 3.1V223.79999999999995H437.1l-2.7 1.7c-8.6 5.1-14.1 10.9-16.5 17.2v-137.5l-2.3-3.1c-14.3-19-33.5-19.1-47.8 0l-2.3 3.1V284c1.2 10.2 0 16.5-3.3 20.4-5 5.7-15.8 6.9-23.9 6.9h-36.7c1.8-93.2-11.8-167.9-40.5-222.3l-2-3.8-4-1.6c-12.1-4.9-22.1-4.8-29.5 0.3-7.1 4.8-10.7 13.3-10.7 25.1v3.1l1.5 2.7c24.7 43.3 35.6 113.2 32.5 207.7V628.1l2.3 3.1c14.3 19 33.5 19 47.8 0l2.3-3.1v-128.3h44.8V652.4l2.3 3.1c14.3 19 33.5 19 47.7 0l2.3-3.1v-152.7H449l3.1-2.3c0.3-0.2 0.6-0.4 0.9-0.7v59.4c0 38.8 21.4 60.2 60.2 60.2h50.9c5.2 11.7 10.4 26.8 15.7 45l1 3.6 2.9 2.3c4.6 3.7 18.6 14.9 32.2 9.9 8-2.9 13.3-10.2 15.6-21.6l0.5-2.3-0.5-2.3c-2.3-11.5-5.4-23.1-9.4-34.7h95.2c21.9 0 38.3-5.8 48.5-17.1 9.6-10.6 13.5-25.5 11.6-44.3l0.1-144.7c1.9-20.3-2.5-36.5-13.1-47.1-10.6-10.6-26.9-14.9-48.1-13H609.1c-8.6-24.7-22.6-49.4-41.8-74h60.6v49.9l1.7 2.8c7.1 11.8 15.4 17.8 24.6 17.8 9.2 0 17.5-6 24.5-17.8l1.7-2.8V276h108.3l2.8-1.7c11.8-7.1 17.7-15.3 17.7-24.5-0.1-9-6-17.2-17.8-24.3zM470.1 361.79999999999995c-11.4 10.3-17.1 26.6-17.1 48.6v40c-0.3-0.2-0.6-0.4-0.9-0.7l-3.1-2.3H301.2v-83.7h46.7c25.1 0 43.9-6.6 55.8-19.5 11.2-12.2 15.9-29.5 14.1-51.4v-35.5c2.4 6.3 7.9 12.1 16.5 17.2l2.7 1.7h62c22.1 20.4 40.4 45.2 54.5 74h-40.3c-17.7-1.9-32.6 2-43.1 11.6z"  horiz-adv-x="1024" />

    
    <glyph glyph-name="edit-2" unicode="&#59053;" d="M361.17333333 325.12l-2.34666666-12.26666667c6.50666667 4.69333333 14.18666667 7.14666667 22.4 7.25333334 10.56 0 20.26666667-4.05333333 27.62666666-11.30666667l56.21333334-55.78666667 213.97333333 222.18666667-87.46666667 85.86666667-230.4-235.94666667z m-12.16-65.17333333l-10.66666666-56.74666667 54.50666666 12.16-38.61333333 38.29333333c-2.02666667 1.92-3.73333333 4.05333333-5.22666667 6.29333334zM511.57333333 861.65333333C248.32 861.65333333 34.13333333 647.46666667 34.13333333 384.21333333s214.18666667-477.44 477.44-477.44 477.44 214.18666667 477.44 477.44C988.90666667 647.46666667 774.72 861.65333333 511.57333333 861.65333333zM761.81333333 449.06666667l-275.2-285.76c-5.33333333-5.54666667-12.05333333-9.28-19.52-10.98666667l-169.17333333-37.76c-2.77333333-0.64-5.65333333-0.96-8.42666667-0.96-10.13333333 0-19.84 3.94666667-27.09333333 10.98666667-9.38666667 9.06666667-13.54666667 22.08-11.09333333 34.98666666L287.04 350.93333333c1.49333333 7.57333333 5.01333333 14.50666667 10.45333333 19.94666667L563.2 643.09333333c7.14666667 7.36 17.06666667 11.62666667 27.41333333 11.73333334 11.09333333-0.21333333 20.48-4.05333333 27.62666667-11.09333334l142.82666667-140.05333333c15.04-14.82666667 15.36-39.36 0.74666666-54.61333333z"  horiz-adv-x="1024" />

    
    <glyph glyph-name="subordinate" unicode="&#58880;" d="M390.38377 167.16821600000003c0 176.581572 142.823331 319.404903 319.404903 319.404903 79.634827 0 151.47929-29.430262 207.743026-77.038039V689.988166c0 40.683009-32.892646 73.575655-73.575655 73.575655H528.013525c-24.236686 0-47.607777 12.118343-61.457312 32.892646-7.790363 12.118343-17.311919 25.967878-26.833474 39.817413-24.236686 44.145393-56.263736 36.35503-56.263736 36.35503H115.989856c-40.683009 0-73.575655-32.892646-73.575655-73.575656v-797.213863c0-40.683009 32.892646-73.575655 73.575655-73.575655h380.862215c-65.785292 58.860524-106.468301 144.554522-106.468301 238.90448z m-85.693998 411.158073H753.06847c13.849535 0 25.967878-12.118343 25.967878-25.967878s-12.118343-25.967878-25.967878-25.967878H304.689772c-16.446323 0-25.967878 9.521555-25.967879 25.967878 0 13.849535 12.118343 25.967878 25.967879 25.967878zM206.87743 135.141167c-14.715131 0-25.967878 11.252747-25.967878 25.967878s11.252747 25.967878 25.967878 25.967878 25.967878-11.252747 25.967879-25.967878-11.252747-25.967878-25.967879-25.967878z m0 195.624683c-14.715131 0-25.967878 11.252747-25.967878 25.967878s11.252747 25.967878 25.967878 25.967878 25.967878-11.252747 25.967879-25.967878c0-13.849535-11.252747-25.967878-25.967879-25.967878z m0 195.624683c-14.715131 0-25.967878 11.252747-25.967878 25.967878s11.252747 25.967878 25.967878 25.967878 25.967878-11.252747 25.967879-25.967878c0-13.849535-11.252747-25.967878-25.967879-25.967878z m111.661877-391.249366h-14.715131c-16.446323 0-25.967878 9.521555-25.967878 25.967878 0 13.849535 12.118343 25.967878 25.967878 25.967878h14.715131c13.849535 0 25.967878-12.118343 25.967878-25.967878s-12.118343-25.967878-25.967878-25.967878z m-13.849535 195.624683c-16.446323 0-25.967878 9.521555-25.967879 25.967878 0 13.849535 12.118343 25.967878 25.967879 25.967878h72.710059c13.849535 0 25.967878-12.118343 25.967878-25.967878s-12.118343-25.967878-25.967878-25.967878h-72.710059zM676.896027 245.93744700000002v-3.462384c0-6.059172-4.32798-12.118343-12.983939-17.311918l-1.731192-0.865596h-26.833474v-45.010989c2.596788 0.865596 5.193576 2.596788 7.790363 4.327979 2.596788 0.865596 5.193576 1.731192 6.924768 1.731192v3.462384c0 11.252747 6.924768 18.177515 19.043111 19.043111h70.978867v38.086221h-63.188504zM708.923077 440.696534c-153.210482 0-273.528318-120.317836-273.528318-273.528318s120.317836-273.528318 273.528318-273.528317c153.210482 0 270.065934 120.317836 273.528318 273.528317 0 153.210482-120.317836 273.528318-273.528318 273.528318z m166.194421-412.023668c-0.865596-11.252747-7.790363-17.311919-19.043111-19.043111H658.718512c-12.983939 0.865596-19.043111 8.655959-19.04311 19.043111 0 12.118343 6.924768 19.043111 19.04311 19.04311h82.231615v48.473373h-64.0541c-12.118343 0-19.908707 6.924768-20.774303 19.043111V116.96365200000002c0.865596 11.252747 8.655959 17.311919 19.908707 19.04311h64.919696v25.102283c0 1.731192 0 5.193576 1.731192 7.790363h-72.710059-0.865596c0.865596-8.655959-2.596788-16.446323-11.252748-21.639898-6.059172-4.32798-13.849535-7.790363-21.639898-12.118343v-90.021978c-1.731192-15.580727-6.924768-26.833474-16.446323-32.892646-6.924768-5.193576-15.580727-6.924768-25.967878-6.924768-7.790363 0-17.311919 1.731192-28.564667 4.32798-11.252747 5.193576-16.446323 13.849535-13.849535 24.236686l0.865596 1.731192c5.193576 9.521555 13.849535 12.983939 25.102283 9.521556 13.849535-3.462384 19.043111-1.731192 19.908706-0.865596 0.865596 0 0.865596 0.865596 1.731192 2.596787v71.844464c-6.924768-3.462384-16.446323-6.924768-27.69907-11.252748-16.446323-5.193576-23.37109 4.32798-25.967878 9.521556l-0.865596 1.731192c-2.596788 11.252747 2.596788 20.774303 12.983939 25.102282 16.446323 5.193576 30.295858 11.252747 41.548605 16.446323v64.0541h-31.161454c-11.252747 0-18.177515 6.924768-18.177515 18.177514s6.059172 18.177515 17.311919 19.043111h32.02705V307.394759c0 4.32798 1.731192 14.715131 17.311919 16.446323h1.731192c14.715131-1.731192 18.177515-10.387151 19.043111-15.580727V261.51817400000004h24.236686v3.462384c0.865596 6.059172 4.32798 17.311919 21.639899 19.043111h59.72612v25.967878c0 5.193576 1.731192 16.446323 19.04311 18.177515h1.731192c10.387151-0.865596 17.311919-7.790363 19.043111-17.311919v-26.833474H839.628064c12.118343-0.865596 18.177515-8.655959 18.177515-19.043111 0-12.118343-6.924768-19.043111-18.177515-19.043111h-59.72612v-38.086221h66.650888c12.118343-0.865596 18.177515-8.655959 18.177515-19.043111 0-12.118343-6.924768-19.043111-18.177515-19.043111h-69.247676c1.731192-2.596788 2.596788-5.193576 2.596788-6.924767v-25.967879h64.0541c10.387151-1.731192 17.311919-7.790363 18.177515-19.04311v-1.731192c-1.731192-17.311919-12.983939-19.043111-18.177515-19.043111h-64.0541v-48.473373h76.172443c11.252747 0 18.177515-6.924768 19.043111-19.04311v-0.865596z"  horiz-adv-x="1024" />

    
    <glyph glyph-name="truck" unicode="&#59117;" d="M1180.20833333 215.25h-28.125V405.26953125c0 22.32421875-8.96484375 43.76953125-24.78515625 59.58984375L951.69270833 640.46484375c-15.8203125 15.8203125-37.265625 24.78515625-59.58984375 24.78515625H814.58333333V749.625c0 46.58203125-37.79296875 84.375-84.375 84.375H167.70833333C121.12630208 834 83.33333333 796.20703125 83.33333333 749.625v-562.5c0-46.58203125 37.79296875-84.375 84.375-84.375h28.125c0-93.1640625 75.5859375-168.75 168.75-168.75s168.75 75.5859375 168.75 168.75h225c0-93.1640625 75.5859375-168.75 168.75-168.75s168.75 75.5859375 168.75 168.75h84.375c15.46875 0 28.125 12.65625 28.125 28.125v56.25c0 15.46875-12.65625 28.125-28.125 28.125zM364.58333333 18.375c-46.58203125 0-84.375 37.79296875-84.375 84.375s37.79296875 84.375 84.375 84.375 84.375-37.79296875 84.375-84.375-37.79296875-84.375-84.375-84.375z m562.5 0c-46.58203125 0-84.375 37.79296875-84.375 84.375s37.79296875 84.375 84.375 84.375 84.375-37.79296875 84.375-84.375-37.79296875-84.375-84.375-84.375z m140.625 365.625H814.58333333V580.875h77.51953125l175.60546875-175.60546875V384z"  horiz-adv-x="1280" />

    
    <glyph glyph-name="400" unicode="&#58939;" d="M506.090057 896h11.293257c71.211886-2.399086 142.5408-16.676571 207.199086-47.279543 113.108114-51.6096 205.677714-146.2272 254.946743-260.388571 76.127086-171.505371 47.104-384.029257-74.1376-527.5648-80.340114-98.596571-199.124114-165.0688-325.280914-181.569829-103.336229-13.984914-211.002514 3.978971-303.572115 52.4288-109.187657 56.173714-196.549486 153.248914-240.903314 267.761372C0.702171 287.919543-7.489829 386.340571 9.596343 479.787886c23.405714 126.449371 96.958171 242.541714 201.230628 317.791085C295.789714 860.423314 400.705829 893.834971 506.090057 896m-181.394286-199.358171c32.592457-56.700343 67.935086-111.762286 99.474286-169.047772 16.676571 6.9632 31.890286 16.7936 46.811429 26.799543 9.713371 6.026971 14.336 20.128914 6.670628 29.608229-25.336686 44.002743-51.902171 87.2448-78.760228 130.311314-5.032229 8.484571-13.1072 18.080914-24.283429 14.7456-18.958629-6.612114-33.762743-21.006629-49.912686-32.416914m-48.215771-76.068572c-12.288-41.662171-3.861943-86.074514 5.909943-127.3856 30.661486-134.465829 107.958857-254.244571 204.741486-350.851657 33.9968-31.656229 75.132343-57.402514 121.2416-66.472229 23.113143-5.441829 46.869943-0.936229 70.334171-2.048-30.134857 50.848914-60.445257 101.697829-90.755657 152.488229-11.8784 25.570743-48.800914 19.836343-62.551772 44.061257a5202.7392 5202.7392 0 0 0-111.352685 178.702629c-6.144 10.825143-10.825143 23.3472-9.0112 35.986285 3.335314 13.633829 11.995429 27.794286 3.978971 41.603658-31.012571 53.130971-63.0784 105.735314-94.325028 158.749257-14.979657-20.128914-30.544457-40.608914-38.209829-64.833829m319.663543-369.693257c31.012571-56.992914 66.238171-111.703771 98.655086-167.877486 16.969143 10.825143 35.752229 18.8416 51.668114 31.246629 11.527314 11.234743 2.574629 26.799543-4.271543 37.800228-23.171657 37.449143-45.524114 75.483429-67.584 113.693258-5.266286 9.362286-13.224229 19.953371-25.629257 15.740342-19.368229-6.729143-35.693714-19.777829-52.8384-30.602971z"  horiz-adv-x="1024" />

    
    <glyph glyph-name="edit" unicode="&#59669;" d="M513.06666667 860.26666667c-262.93333333 0-476.05333333-213.12-476.05333334-476.05333334S250.13333333-91.84000000000003 513.06666667-91.84000000000003s476.05333333 213.12 476.05333333 476.05333333S776 860.26666667 513.06666667 860.26666667z m222.93333333-253.12c8.53333333-8.53333333 8.53333333-22.4 0-30.93333334L528.53333333 368.74666666999997l-0.10666666-0.10666667c-8.53333333-8.53333333-22.29333333-8.42666667-30.82666667 0.10666667s-8.53333333 22.29333333 0 30.82666666l207.57333333 207.57333334c8.53333333 8.53333333 22.29333333 8.53333333 30.82666667 0z m17.38666667-419.73333334c0-24-19.52-43.52-43.52-43.52h-393.6c-24 0-43.52 19.52-43.52 43.52v393.6c0 24 19.52 43.52 43.52 43.52H513.06666667c12.05333333 0 21.86666667-9.81333333 21.86666666-21.86666666s-9.81333333-21.86666667-21.86666666-21.86666667H316.26666667l0.21333333-393.38666667 393.38666667 0.21333334-0.21333334 196.58666666c0 12.05333333 9.81333333 21.86666667 21.86666667 21.86666667s21.86666667-9.81333333 21.86666667-21.86666667v-196.8z"  horiz-adv-x="1024" />

    
    <glyph glyph-name="bars-x" unicode="&#58884;" d="M1024 892.211259l0-174.044341-1024 0L0 892.211259zM1024 471.022171l0-174.014626-1024 0 0 174.014626zM1024 49.83308199999999l0-174.044341-1024 0 0 174.044341z"  horiz-adv-x="1024" />

    
    <glyph glyph-name="logs" unicode="&#58897;" d="M722.489 423.822c28.444 0 56.889-5.689 85.333-17.066v307.2c0 34.133-22.755 56.888-56.889 56.888H637.156V691.2c0-28.444-22.756-51.2-51.2-51.2h-39.823c-28.444 5.689-51.2 28.444-51.2 51.2v79.644H381.156V691.2c0-28.444-22.756-51.2-51.2-51.2h-39.823c-28.444 5.689-51.2 28.444-51.2 51.2v79.644H125.156c-34.134 0-56.89-22.755-56.89-56.888v-682.667c0-34.133 22.756-56.889 56.89-56.889H506.31c-39.822 45.511-62.578 108.089-62.578 170.667 0 153.6 125.156 278.755 278.756 278.755z m-540.445 96.711c0 5.69 5.69 11.378 11.378 11.378h489.245c5.689 0 11.377-5.689 11.377-11.378V486.4c0-5.689-5.688-11.378-11.377-11.378H193.422c-5.689 0-11.378 5.69-11.378 11.378v34.133z m0-170.666c0 5.689 5.69 11.377 11.378 11.377h204.8c5.69 0 11.378-5.688 11.378-11.377v-39.823c0-5.688-5.689-11.377-11.378-11.377h-204.8c-5.689 0-11.378 5.689-11.378 11.377v39.823z m170.667-204.8c0-5.69-5.689-5.69-5.689-5.69H187.733c-5.689 0-5.689 5.69-5.689 5.69v39.822c0 5.689 5.69 5.689 5.69 5.689h153.6c5.688 0 5.688-5.69 5.688-5.69v-39.821zM329.956 856.178h-39.823c-5.689 0-11.377 0-11.377-5.69V691.2c0-5.689 5.688-5.689 5.688-5.689h39.823c5.689 0 5.689 5.689 5.689 5.689V850.489c5.688 5.689 5.688 5.689 0 5.689z m256 0h-39.823c-5.689 0-5.689-5.69-5.689-5.69V691.2c0-5.689 5.69-5.689 5.69-5.689h39.822c5.688 0 5.688 5.689 5.688 5.689V850.489c0 5.689 0 5.689-5.688 5.689z m221.866-494.934c-28.444 11.378-56.889 17.067-85.333 17.067-130.845 0-233.245-108.089-233.245-233.244 0-68.267 28.445-125.156 73.956-170.667 39.822-39.822 96.711-62.578 159.289-62.578 130.844 0 233.244 108.09 233.244 233.245 0 102.4-62.577 182.044-147.91 216.177z m28.445-244.622c0-5.689-5.69-11.378-11.378-11.378H699.733c-5.689 0-11.377 5.69-11.377 11.378V281.6c0 5.689 5.688 17.067 17.066 17.067H716.8c5.689 0 17.067-5.69 17.067-17.067v-136.533h102.4c5.689 0 11.377-5.69 11.377-11.378v-17.067z"  horiz-adv-x="1024" />

    
    <glyph glyph-name="bars-y-1" unicode="&#59670;" d="M952.74666664-108.56533334999995L952.74666664 897.89866665A72.864 72.864 0 0 0 1025.70666664 970.66666665C1066.02666665 970.66666665 1098.66666665 938.02666665 1098.66666665 897.89866666l0-1006.464c0-40.22400001-32.64-72.768-72.96-72.76800001s-72.96 32.64-72.96000001 72.768z m-407.03999999 0L545.70666665 897.89866665A72.864 72.864 0 0 0 618.66666665 970.66666665c40.32 0 72.96-32.64 72.96-72.768l0-1006.464c0-40.22400001-32.64-72.768-72.96-72.768s-72.96 32.64-72.96 72.768z m-407.04 1e-8L138.66666665 897.89866666A72.864 72.864 0 0 0 211.62666666 970.66666665c40.32 0 72.96-32.64 72.96-72.768l0-1006.464c0-40.22400001-32.64-72.768-72.96000001-72.768s-72.96 32.64-72.96 72.76800001z"  horiz-adv-x="1228" />

    
    <glyph glyph-name="right" unicode="&#59671;" d="M222.7974 818.780446l75.411133 76.713196L725.465951 460.713196 800.840916 384l-75.374965-76.713196L298.208533-127.49364200000002l-75.411133 76.713196L650.054818 384z"  horiz-adv-x="1024" />

    
    <glyph glyph-name="circle-sm" unicode="&#59673;" d="M512 652.52376322C363.92418192 652.52376322 243.47623678 532.07581808 243.47623678 384c0-148.07581808 120.44794513-268.52376322 268.52376322-268.52376322 148.07474399 0 268.52376322 120.44794513 268.52376322 268.52376322C780.52376322 532.07581808 660.07474399 652.52376322 512 652.52376322L512 652.52376322z"  horiz-adv-x="1024" />

    
    <glyph glyph-name="cancel-sm" unicode="&#59674;" d="M547.99896702 383.34547332l193.06019437-193.08536849a24.49440204 24.49440204 0 0 0-34.66473955-34.66473955l-193.06019439 193.0853685-193.63919877-193.63919876a25.42584382 25.42584382 0 1 0-35.92344468 35.92344469l193.63919875 193.66437286L283.34362424 578.6965110799999A24.49440204 24.49440204 0 1 0 318.00836382 613.33607653l194.04198438-194.0923326L705.53850235 612.78224627a25.42584382 25.42584382 0 1 0 35.92344469-35.9234447l-193.46298001-193.48815414z"  horiz-adv-x="1024" />

    
    <glyph glyph-name="cancel" unicode="&#59675;" d="M585.216 382.66880000000003l392.6528-392.704a49.8176 49.8176 0 0 0-70.5024-70.5024l-392.6528 392.704-393.8304-393.8304a51.712 51.712 0 1 0-73.0624 73.0624l393.8304 393.8816L46.9504 779.9808A49.8176 49.8176 0 1 0 117.4528 850.432l394.6496-394.752L905.6256 849.3056a51.712 51.712 0 1 0 73.0624-73.0624l-393.472-393.5232z"  horiz-adv-x="1024" />

    
    <glyph glyph-name="caret-bottom" unicode="&#59110;" d="M918.42213073 821.12556201l-403.80783696-534.92472424L104.57237167 821.12556201z"  horiz-adv-x="1024" />

    
    <glyph glyph-name="caret-top" unicode="&#59113;" d="M918.42213073-53.12556200999995L514.61429377 481.79916223 104.57237167-53.12556200999995z"  horiz-adv-x="1024" />

    
    <glyph glyph-name="return-left" unicode="&#59620;" d="M727.6032 435.2H418.6624l129.8432 129.8944A51.2 51.2 0 1 1 476.16 637.5424L260.096 421.4272c-0.4608-0.4096-1.0752-0.5632-1.5872-1.024a50.7904 50.7904 0 0 1-14.592-36.9664 50.176 50.176 0 0 1 14.6944-35.84 9.8304 9.8304 0 0 1 1.3312-0.8704L476.16 130.45759999999996a51.2 51.2 0 1 1 72.3456 72.2944L418.6112 332.79999999999995h308.992a51.2 51.2 0 1 1 0 102.4z m0 0M512 896a512 512 0 1 1 512-512A512 512 0 0 1 512 896z m0-921.6a409.6 409.6 0 1 0 409.6 409.6 409.6 409.6 0 0 0-409.6-409.6z m0 0"  horiz-adv-x="1024" />

    


  </font>
</defs>
</svg>
